<?xml version="1.0" encoding="UTF-8" standalone="no"?>
<!-- Created with Inkscape (http://www.inkscape.org/) -->

<svg
   version="1.1"
   id="svg2"
   width="2417.1599"
   height="399.90668"
   viewBox="0 0 2417.1599 399.90668"
   sodipodi:docname="FlashPaper_Logo_v1.eps"
   xmlns:inkscape="http://www.inkscape.org/namespaces/inkscape"
   xmlns:sodipodi="http://sodipodi.sourceforge.net/DTD/sodipodi-0.dtd"
   xmlns="http://www.w3.org/2000/svg"
   xmlns:svg="http://www.w3.org/2000/svg">
  <defs
     id="defs6" />
  <sodipodi:namedview
     id="namedview4"
     pagecolor="#ffffff"
     bordercolor="#000000"
     borderopacity="0.25"
     inkscape:showpageshadow="2"
     inkscape:pageopacity="0.0"
     inkscape:pagecheckerboard="0"
     inkscape:deskcolor="#d1d1d1" />
  <g
     id="g8"
     inkscape:groupmode="layer"
     inkscape:label="ink_ext_XXXXXX"
     transform="matrix(1.3333333,0,0,-1.3333333,0,399.90667)">
    <g
       id="g10"
       transform="scale(0.1)">
      <path
         d="M 4443.56,1638.72 V 872.238 c 0,-59.129 -15.28,-100.59 -45.76,-124.41 -30.52,-23.816 -61.98,-35.75 -94.38,-35.75 -34.32,0 -66.76,11.934 -97.24,35.75 -30.52,23.82 -45.76,65.281 -45.76,124.41 V 2591.1 c 0,112.48 56.22,168.74 168.74,168.74 h 978.12 c 53.36,0 90.09,-13.36 110.11,-40.04 20.02,-26.73 30.03,-55.32 30.03,-85.8 0,-17.16 -2.86,-33.87 -8.58,-50.05 -5.72,-16.22 -19.57,-32.44 -41.47,-48.62 -21.94,-16.22 -51.97,-24.31 -90.09,-24.31 h -863.72 v -629.2 h 803.66 c 51.48,0 87.23,-12.87 107.25,-38.61 20.02,-25.74 30.03,-52.91 30.03,-81.51 0,-17.16 -2.86,-33.87 -8.58,-50.05 -5.72,-16.22 -19.57,-32.44 -41.47,-48.62 -21.94,-16.22 -51.03,-24.31 -87.23,-24.31 h -803.66"
         style="fill:#2c65a6;fill-opacity:1;fill-rule:nonzero;stroke:none"
         id="path12" />
      <path
         d="M 5747.72,860.801 V 2771.28 c 0,55.28 14.3,93.89 42.9,115.83 28.6,21.9 59.08,32.89 91.52,32.89 32.4,0 62.92,-10.99 91.52,-32.89 28.6,-21.94 42.9,-60.55 42.9,-115.83 V 860.801 c 0,-55.321 -14.3,-93.942 -42.9,-115.832 -28.6,-21.891 -59.12,-32.891 -91.52,-32.891 -32.44,0 -62.92,11 -91.52,32.891 -28.6,21.89 -42.9,60.511 -42.9,115.832"
         style="fill:#2c65a6;fill-opacity:1;fill-rule:nonzero;stroke:none"
         id="path14" />
      <path
         d="m 7300.7,1381.32 h -65.78 c -402.32,0 -603.46,-85.8 -603.46,-257.39 0,-74.37 26.68,-128.27 80.08,-161.602 53.36,-33.387 119.14,-50.047 197.34,-50.047 122,0 217.81,36.68 287.43,110.109 69.58,73.38 104.39,169.19 104.39,287.43 z m 11.44,-531.961 v 80.082 h -8.58 c -101.08,-152.57 -252.66,-228.8 -454.74,-228.8 -57.2,0 -113.46,7.64 -168.74,22.879 -55.32,15.242 -107.74,38.121 -157.3,68.64 -49.6,30.481 -89.64,73.86 -120.12,130.129 -30.52,56.223 -45.76,121.551 -45.76,195.911 0,78.16 18.59,146.31 55.77,204.49 37.18,58.14 84.37,102.96 141.57,134.42 57.2,31.46 130.13,56.22 218.79,74.36 88.66,18.1 172.54,30.03 251.68,35.75 79.1,5.72 171.11,8.58 275.99,8.58 v 37.18 c 0,97.24 -30.03,171.11 -90.09,221.65 -60.06,50.5 -141.57,75.79 -244.53,75.79 -108.68,0 -215.48,-35.3 -320.32,-105.82 -26.72,-19.08 -53.4,-28.6 -80.08,-28.6 -28.6,0 -52.91,10.01 -72.93,30.03 -20.02,20.02 -30.03,45.27 -30.03,75.79 0,43.84 20.02,79.1 60.06,105.82 127.72,93.4 284.08,140.14 469.04,140.14 186.84,0 327.91,-49.11 423.28,-147.29 95.32,-98.22 143,-226.43 143,-384.67 V 849.359 c 0,-51.48 -12.87,-87.23 -38.61,-107.25 -25.74,-20.019 -52.91,-30.031 -81.51,-30.031 -30.52,0 -59.12,10.012 -85.8,30.031 -26.72,20.02 -40.04,55.77 -40.04,107.25"
         style="fill:#2c65a6;fill-opacity:1;fill-rule:nonzero;stroke:none"
         id="path16" />
      <path
         d="m 8656.35,1813.18 c -74.36,68.64 -161.15,102.96 -260.27,102.96 -68.64,0 -127.76,-14.79 -177.32,-44.33 -49.6,-29.58 -74.36,-73.91 -74.36,-132.99 0,-53.4 23.82,-94.38 71.5,-122.98 47.64,-28.6 126.78,-55.32 237.38,-80.08 143,-32.44 254.55,-79.14 334.62,-140.14 80.08,-61.04 120.13,-147.78 120.13,-260.26 0,-148.719 -51.98,-258.829 -155.88,-330.329 -103.94,-71.5 -232.15,-107.25 -384.67,-107.25 -181.16,0 -329.88,50.5 -446.16,151.578 -38.16,34.321 -57.2,70.512 -57.2,108.68 0,34.32 10.95,62.921 32.89,85.801 21.9,22.88 50.05,34.32 84.37,34.32 32.4,0 65.78,-14.3 100.1,-42.9 91.52,-80.069 188.76,-120.119 291.72,-120.119 76.24,0 140.14,15.73 191.62,47.187 51.48,31.461 77.22,81.512 77.22,150.152 0,59.08 -27.17,103.9 -81.5,134.42 -54.35,30.47 -145.42,61 -273.13,91.52 -55.33,13.32 -102.03,27.18 -140.15,41.47 -38.16,14.3 -78.65,35.26 -121.55,62.92 -42.89,27.62 -75.79,64.35 -98.67,110.11 -22.88,45.76 -34.32,99.12 -34.32,160.16 0,137.28 50.05,240.69 150.15,310.31 100.1,69.58 220.67,104.39 361.79,104.39 160.16,0 290.74,-42.9 391.82,-128.7 41.92,-34.32 62.92,-70.56 62.92,-108.68 0,-32.44 -10.99,-60.06 -32.89,-82.94 -21.94,-22.88 -50.05,-34.32 -84.37,-34.32 -28.6,0 -57.2,13.32 -85.79,40.04"
         style="fill:#2c65a6;fill-opacity:1;fill-rule:nonzero;stroke:none"
         id="path18" />
      <path
         d="m 10166.4,860.801 v 623.479 c 0,276.44 -102,414.7 -305.99,414.7 -106.81,0 -194.48,-41.02 -263.13,-122.98 -68.64,-82 -102.96,-189.74 -102.96,-323.18 V 860.801 c 0,-55.321 -14.29,-93.942 -42.9,-115.832 -28.6,-21.891 -59.12,-32.891 -91.52,-32.891 -32.44,0 -62.92,11 -91.51,32.891 -28.61,21.89 -42.9,60.511 -42.9,115.832 V 2771.28 c 0,55.28 14.29,93.89 42.9,115.83 28.59,21.9 59.07,32.89 91.51,32.89 32.4,0 62.92,-10.99 91.52,-32.89 28.61,-21.94 42.9,-60.55 42.9,-115.83 v -886.6 h 5.73 c 32.39,68.64 88.16,126.28 167.3,173.03 79.1,46.7 166.33,70.07 261.69,70.07 165.86,0 291.76,-51.48 377.56,-154.44 85.8,-102.96 128.7,-235.5 128.7,-397.54 V 860.801 c 0,-55.321 -14.3,-93.942 -42.9,-115.832 -28.6,-21.891 -59.2,-32.891 -91.6,-32.891 -32.4,0 -62.9,11 -91.5,32.891 -28.6,21.89 -42.9,60.511 -42.9,115.832"
         style="fill:#2c65a6;fill-opacity:1;fill-rule:nonzero;stroke:none"
         id="path20" />
      <path
         d="m 11153.1,2519.6 v -654.94 h 300.3 c 314.6,0 471.9,110.56 471.9,331.76 0,215.44 -155.4,323.18 -466.2,323.18 z m -114.4,240.24 h 449 c 226.9,0 404.2,-46.25 532,-138.71 127.7,-92.5 191.6,-234.08 191.6,-424.71 0,-194.48 -67.2,-338.46 -201.6,-431.86 -134.4,-93.44 -313.2,-140.14 -536.3,-140.14 h -320.3 V 872.238 c 0,-59.129 -15.3,-100.59 -45.7,-124.41 -30.6,-23.816 -62,-35.75 -94.4,-35.75 -34.3,0 -66.8,11.934 -97.3,35.75 -30.5,23.82 -45.7,65.281 -45.7,124.41 V 2591.1 c 0,112.48 56.2,168.74 168.7,168.74"
         style="fill:#2c65a6;fill-opacity:1;fill-rule:nonzero;stroke:none"
         id="path22" />
      <path
         d="m 13341,1381.32 h -65.8 c -402.3,0 -603.4,-85.8 -603.4,-257.39 0,-74.37 26.7,-128.27 80.1,-161.602 53.3,-33.387 119.1,-50.047 197.3,-50.047 122,0 217.8,36.68 287.4,110.109 69.6,73.38 104.4,169.19 104.4,287.43 z m 11.5,-531.961 v 80.082 h -8.6 c -101.1,-152.57 -252.7,-228.8 -454.8,-228.8 -57.2,0 -113.4,7.64 -168.7,22.879 -55.3,15.242 -107.7,38.121 -157.3,68.64 -49.6,30.481 -89.6,73.86 -120.1,130.129 -30.5,56.223 -45.8,121.551 -45.8,195.911 0,78.16 18.6,146.31 55.8,204.49 37.2,58.14 84.4,102.96 141.6,134.42 57.2,31.46 130.1,56.22 218.7,74.36 88.7,18.1 172.6,30.03 251.7,35.75 79.1,5.72 171.1,8.58 276,8.58 v 37.18 c 0,97.24 -30,171.11 -90.1,221.65 -60,50.5 -141.5,75.79 -244.5,75.79 -108.7,0 -215.5,-35.3 -320.3,-105.82 -26.7,-19.08 -53.4,-28.6 -80.1,-28.6 -28.6,0 -52.9,10.01 -72.9,30.03 -20,20.02 -30.1,45.27 -30.1,75.79 0,43.84 20.1,79.1 60.1,105.82 127.7,93.4 284.1,140.14 469,140.14 186.9,0 328,-49.11 423.3,-147.29 95.3,-98.22 143,-226.43 143,-384.67 V 849.359 c 0,-51.48 -12.8,-87.23 -38.6,-107.25 -25.7,-20.019 -52.9,-30.031 -81.5,-30.031 -30.5,0 -59.1,10.012 -85.8,30.031 -26.7,20.02 -40,55.77 -40,107.25"
         style="fill:#2c65a6;fill-opacity:1;fill-rule:nonzero;stroke:none"
         id="path24" />
      <path
         d="m 15002.7,1068.15 c 80.1,96.25 120.1,212.08 120.1,347.49 0,135.36 -40,250.7 -120.1,346.06 -80.1,95.32 -190.7,143 -331.8,143 -133.5,0 -243.1,-48.62 -328.9,-145.86 -85.8,-97.24 -128.7,-212.62 -128.7,-346.06 0,-133.48 42.9,-248.38 128.7,-344.63 85.8,-96.298 195.4,-144.431 328.9,-144.431 141.1,0 251.7,48.133 331.8,144.431 z m 397.5,347.49 c 0,-204.04 -62.9,-374.66 -188.7,-511.941 -125.9,-137.269 -290.8,-205.918 -494.8,-205.918 -97.3,0 -188.8,21.449 -274.6,64.348 -85.8,42.902 -153.5,101.531 -203,175.891 h -8.6 V 174.398 c 0,-55.277 -14.3,-93.8863 -42.9,-115.8277 -28.6,-21.8984 -59.1,-32.8906 -91.5,-32.8906 -32.5,0 -63,10.9922 -91.6,32.8906 -28.6,21.9414 -42.9,60.5507 -42.9,115.8277 V 1967.62 c 0,55.28 13.8,93.4 41.5,114.4 27.6,20.96 57.7,31.46 90.1,31.46 32.4,0 62.4,-10.5 90.1,-31.46 27.6,-21 41.5,-59.12 41.5,-114.4 v -88.66 h 8.5 c 45.8,74.36 111.6,134.42 197.4,180.18 85.8,45.76 183,68.64 291.7,68.64 198.3,0 360.8,-68.19 487.6,-204.49 126.8,-136.34 190.2,-305.58 190.2,-507.65"
         style="fill:#2c65a6;fill-opacity:1;fill-rule:nonzero;stroke:none"
         id="path26" />
      <path
         d="m 15932.2,1532.9 h 806.5 c -3.8,112.48 -38.2,204.49 -103,275.99 -64.8,71.5 -157.3,107.25 -277.4,107.25 -114.4,0 -211.6,-37.18 -291.7,-111.54 -80.1,-74.36 -124.9,-164.94 -134.4,-271.7 z m 932.3,-200.2 h -932.3 c 3.8,-116.32 48.6,-214.05 134.4,-293.15 85.8,-79.14 187.8,-118.691 306,-118.691 127.7,0 244.1,48.621 348.9,145.861 30.5,28.6 62,42.9 94.4,42.9 32.4,0 59.6,-10.01 81.5,-30.03 21.9,-20.02 32.9,-47.19 32.9,-81.512 0,-34.316 -14.3,-66.758 -42.9,-97.238 -131.5,-135.399 -303.1,-203.059 -514.8,-203.059 -207.8,0 -378.9,65.778 -513.4,197.34 -134.4,131.559 -201.6,303.159 -201.6,514.799 0,209.72 66.7,381.81 200.2,516.23 133.5,134.42 300.3,201.63 500.5,201.63 173.5,0 317.9,-49.11 433.3,-147.29 115.3,-98.22 185.4,-238.81 210.2,-421.85 3.8,-26.73 5.7,-56.26 5.7,-88.66 0,-91.52 -47.6,-137.28 -143,-137.28"
         style="fill:#2c65a6;fill-opacity:1;fill-rule:nonzero;stroke:none"
         id="path28" />
      <path
         d="M 17568.1,1970.48 V 1861.8 h 8.6 c 34.3,78.16 87.2,142.02 158.7,191.62 71.5,49.56 150.2,74.36 236,74.36 104.8,0 157.3,-40.04 157.3,-120.12 0,-85.8 -53.4,-128.7 -160.2,-128.7 h -20 c -108.7,0 -196.9,-39.1 -264.6,-117.26 -67.7,-78.2 -101.5,-188.76 -101.5,-331.76 V 860.801 c 0,-55.321 -14.3,-93.942 -42.9,-115.832 -28.6,-21.891 -59.1,-32.891 -91.5,-32.891 -32.5,0 -62.9,11 -91.5,32.891 -28.6,21.89 -42.9,60.511 -42.9,115.832 V 1970.48 c 0,38.12 8,68.64 24.3,91.52 16.2,22.88 32.9,37.18 50,42.9 17.2,5.72 35.3,8.58 54.4,8.58 17.1,0 34.3,-2.86 51.4,-8.58 17.2,-5.72 33.9,-20.02 50.1,-42.9 16.2,-22.88 24.3,-53.4 24.3,-91.52"
         style="fill:#2c65a6;fill-opacity:1;fill-rule:nonzero;stroke:none"
         id="path30" />
      <path
         d="M 3280.89,2873.32 2712.37,84 C 2697.66,11.8086 2615.04,-23.0898 2553.02,16.6797 L 1712.11,555.98 1482.69,303.012 c -67.18,-74.071 -190.31,-35.184 -202.75,64.047 l -59.77,424.961 c -7.76,55.171 10.7,110.8 49.89,150.402 L 2463.09,2179.82 c 25.54,26.49 -8.42,67.39 -39.15,47.15 L 883.805,1212.79 C 824.93,1174.16 748.84,1173.76 689.566,1211.78 L 48.2578,1623.12 c -72.3086,46.38 -61.2226,155.26 18.9492,186.12 L 3140.47,2992.12 c 77.3,29.76 156.96,-37.64 140.42,-118.8"
         style="fill:#2c65a6;fill-opacity:1;fill-rule:nonzero;stroke:none"
         id="path32" />
    </g>
  </g>
</svg>
